<svg id="Layer_1" data-name="Layer 1" xmlns="http://www.w3.org/2000/svg" xmlns:xlink="http://www.w3.org/1999/xlink" viewBox="0 0 300 53"><defs><style>.cls-1{fill:url(#New_Gradient_Swatch_1);}.cls-2{fill:url(#New_Gradient_Swatch_1-3);}.cls-3{fill:url(#New_Gradient_Swatch_1-4);}.cls-4{fill:url(#New_Gradient_Swatch_1-6);}.cls-5{fill:url(#New_Gradient_Swatch_1-7);}.cls-6{fill:url(#New_Gradient_Swatch_1-9);}.cls-7{fill:url(#New_Gradient_Swatch_1-10);}.cls-8{fill:url(#New_Gradient_Swatch_1-11);}.cls-9{fill:url(#New_Gradient_Swatch_1-12);}.cls-10{fill:url(#New_Gradient_Swatch_1-14);}.cls-11{fill:url(#New_Gradient_Swatch_1-17);}.cls-12{fill:url(#New_Gradient_Swatch_1-19);}.cls-13{fill:url(#New_Gradient_Swatch_1-20);}.cls-14{fill:url(#New_Gradient_Swatch_1-21);}.cls-15{fill:url(#New_Gradient_Swatch_1-22);}.cls-16{fill:aqua;}.cls-17{fill:url(#radial-gradient);}</style><linearGradient id="New_Gradient_Swatch_1" x1="63.82" y1="26.73" x2="297.61" y2="26.73" gradientUnits="userSpaceOnUse"><stop offset="0" stop-color="#ff24b4"/><stop offset="0.06" stop-color="#f625b8"/><stop offset="0.15" stop-color="#dd29c1"/><stop offset="0.26" stop-color="#b62fd1"/><stop offset="0.4" stop-color="#7e37e7"/><stop offset="0.53" stop-color="#4040ff"/><stop offset="0.61" stop-color="#3759ff"/><stop offset="0.77" stop-color="#229bff"/><stop offset="0.99" stop-color="aqua"/></linearGradient><linearGradient id="New_Gradient_Swatch_1-3" x1="63.82" y1="26.32" x2="297.61" y2="26.32" xlink:href="#New_Gradient_Swatch_1"/><linearGradient id="New_Gradient_Swatch_1-4" x1="63.82" y1="24.94" x2="297.61" y2="24.94" xlink:href="#New_Gradient_Swatch_1"/><linearGradient id="New_Gradient_Swatch_1-6" x1="63.82" y1="16.1" x2="297.61" y2="16.1" xlink:href="#New_Gradient_Swatch_1"/><linearGradient id="New_Gradient_Swatch_1-7" x1="63.82" y1="16.05" x2="297.61" y2="16.05" xlink:href="#New_Gradient_Swatch_1"/><linearGradient id="New_Gradient_Swatch_1-9" x1="63.82" y1="18.87" x2="297.61" y2="18.87" xlink:href="#New_Gradient_Swatch_1"/><linearGradient id="New_Gradient_Swatch_1-10" x1="63.82" y1="6.04" x2="297.61" y2="6.04" xlink:href="#New_Gradient_Swatch_1"/><linearGradient id="New_Gradient_Swatch_1-11" x1="63.82" y1="16.17" x2="297.61" y2="16.17" xlink:href="#New_Gradient_Swatch_1"/><linearGradient id="New_Gradient_Swatch_1-12" x1="63.82" y1="5.6" x2="297.61" y2="5.6" xlink:href="#New_Gradient_Swatch_1"/><linearGradient id="New_Gradient_Swatch_1-14" x1="63.82" y1="6.01" x2="297.61" y2="6.01" xlink:href="#New_Gradient_Swatch_1"/><linearGradient id="New_Gradient_Swatch_1-17" x1="63.82" y1="7.11" x2="297.61" y2="7.11" xlink:href="#New_Gradient_Swatch_1"/><linearGradient id="New_Gradient_Swatch_1-19" x1="63.82" y1="16.15" x2="297.61" y2="16.15" xlink:href="#New_Gradient_Swatch_1"/><linearGradient id="New_Gradient_Swatch_1-20" x1="63.82" y1="15.74" x2="297.61" y2="15.74" xlink:href="#New_Gradient_Swatch_1"/><linearGradient id="New_Gradient_Swatch_1-21" x1="63.82" y1="1.01" x2="297.61" y2="1.01" gradientTransform="translate(0 -0.21) rotate(0.11)" xlink:href="#New_Gradient_Swatch_1"/><linearGradient id="New_Gradient_Swatch_1-22" x1="63.82" y1="1.01" x2="297.61" y2="1.01" xlink:href="#New_Gradient_Swatch_1"/><radialGradient id="radial-gradient" cx="-35.83" cy="43.55" r="95.81" xlink:href="#New_Gradient_Swatch_1"/></defs><rect class="cls-1" x="122.23" y="25.46" width="2.54" height="2.55"/><rect class="cls-1" x="198.24" y="25.46" width="2.54" height="2.55"/><rect class="cls-2" x="145.38" y="24.64" width="3.37" height="3.37"/><path class="cls-3" d="M220.66,21.69a5.57,5.57,0,0,0,1.18,3.41A7.5,7.5,0,0,0,225,27.41a11.43,11.43,0,0,0,3.4.78V25.56a4.85,4.85,0,0,1-2.65-1.07,4.16,4.16,0,0,1-1.5-2.8Z"/><path class="cls-3" d="M282.5,21.69a5.57,5.57,0,0,0,1.18,3.41,7.44,7.44,0,0,0,3.16,2.31,11.36,11.36,0,0,0,3.4.78V25.56a4.92,4.92,0,0,1-2.66-1.07,4.19,4.19,0,0,1-1.49-2.8Z"/><rect class="cls-4" x="76.6" y="14.81" width="2.59" height="2.59"/><rect class="cls-5" x="116.28" y="14.77" width="7.39" height="2.54"/><rect class="cls-5" x="192.29" y="14.77" width="7.39" height="2.54"/><rect class="cls-6" x="258.63" y="9.74" width="3.37" height="18.26"/><rect class="cls-7" x="258.63" y="4.36" width="3.37" height="3.37"/><polygon class="cls-8" points="110.9 4.33 110.9 28.01 120.22 28.01 120.22 25.46 114.26 25.46 114.26 6.87 120.22 6.87 120.22 4.33 110.9 4.33"/><rect class="cls-9" x="122.23" y="4.33" width="2.54" height="2.54"/><polygon class="cls-8" points="145.38 4.33 145.38 22.63 148.75 22.63 148.75 9.18 162.3 28.01 165.66 28.01 165.66 9.71 162.3 9.71 162.3 23.12 148.75 4.33 145.38 4.33"/><rect class="cls-10" x="162.3" y="4.33" width="3.37" height="3.37"/><polygon class="cls-8" points="186.91 4.33 186.91 28.01 196.23 28.01 196.23 25.46 190.28 25.46 190.28 6.87 196.23 6.87 196.23 4.33 186.91 4.33"/><rect class="cls-9" x="198.24" y="4.33" width="2.54" height="2.54"/><path class="cls-11" d="M230.42,6.82a5,5,0,0,1,2.23.92,3.57,3.57,0,0,1,1.55,2.39h3.7a6,6,0,0,0-2.61-4.41,9.42,9.42,0,0,0-4.87-1.63Z"/><path class="cls-11" d="M292.25,6.82a5,5,0,0,1,2.24.92A3.57,3.57,0,0,1,296,10.13h3.7a6,6,0,0,0-2.61-4.41,9.45,9.45,0,0,0-4.88-1.63Z"/><path class="cls-12" d="M224.89,4.87a6.81,6.81,0,0,0-3,2.31,5.66,5.66,0,0,0-1.08,3.42,5.29,5.29,0,0,0,1.1,3.51A6.52,6.52,0,0,0,224.52,16a31.34,31.34,0,0,0,4.09,1.22c1.38.34,2.48.66,3.3.95a5.13,5.13,0,0,1,2,1.29,3.07,3.07,0,0,1,.82,2.2,3.49,3.49,0,0,1-1.39,2.84,5.44,5.44,0,0,1-3,1.06v2.62a9.87,9.87,0,0,0,3.78-.92,7.11,7.11,0,0,0,3-2.47,5.84,5.84,0,0,0,1-3.26A5.31,5.31,0,0,0,237.05,18a6.84,6.84,0,0,0-2.66-1.93,32.92,32.92,0,0,0-4.11-1.27c-1.41-.36-2.5-.69-3.28-1a5.09,5.09,0,0,1-2-1.24,2.87,2.87,0,0,1-.79-2.1,3.3,3.3,0,0,1,1.33-2.8,5.26,5.26,0,0,1,2.82-1V4.09a10.75,10.75,0,0,0-3.51.78"/><path class="cls-12" d="M286.73,4.87a6.81,6.81,0,0,0-3,2.31,5.66,5.66,0,0,0-1.08,3.42,5.29,5.29,0,0,0,1.1,3.51A6.52,6.52,0,0,0,286.36,16a31.34,31.34,0,0,0,4.09,1.22c1.38.34,2.48.66,3.3.95a5.13,5.13,0,0,1,2,1.29,3.06,3.06,0,0,1,.81,2.2,3.48,3.48,0,0,1-1.38,2.84,5.47,5.47,0,0,1-3,1.06v2.62a9.92,9.92,0,0,0,3.79-.92,7.17,7.17,0,0,0,3-2.47,5.84,5.84,0,0,0,1-3.26A5.31,5.31,0,0,0,298.89,18a6.84,6.84,0,0,0-2.66-1.93,32.92,32.92,0,0,0-4.11-1.27c-1.41-.36-2.5-.69-3.28-1a5.09,5.09,0,0,1-2-1.24,2.87,2.87,0,0,1-.79-2.1,3.3,3.3,0,0,1,1.33-2.8,5.23,5.23,0,0,1,2.82-1V4.09a10.75,10.75,0,0,0-3.51.78"/><path class="cls-13" d="M71.09,4.86a12.21,12.21,0,0,0-4.85,4.46,12,12,0,0,0-1.78,6.43,11.88,11.88,0,0,0,1.78,6.42,12.23,12.23,0,0,0,4.85,4.44,14.33,14.33,0,0,0,6.77,1.6,13.91,13.91,0,0,0,6.39-1.46,12.33,12.33,0,0,0,4.63-4A11.5,11.5,0,0,0,91,17.26V14.81H81.27V17.4h6a8.54,8.54,0,0,1-2.95,5.79,9.58,9.58,0,0,1-6.43,2.14,10.58,10.58,0,0,1-5-1.18,8.67,8.67,0,0,1-3.53-3.34A9.83,9.83,0,0,1,68,15.75a10,10,0,0,1,1.28-5.07,8.65,8.65,0,0,1,3.53-3.36,10.58,10.58,0,0,1,5-1.18,9.85,9.85,0,0,1,4.9,1.18,8.64,8.64,0,0,1,1.44,1L86,5.57c-.19-.13-.39-.26-.6-.38a14.59,14.59,0,0,0-7.52-1.93,14.33,14.33,0,0,0-6.77,1.6"/><rect class="cls-14" x="110.9" width="1.98" height="2.01" transform="translate(0 0.21) rotate(-0.11)"/><polygon class="cls-15" points="120.81 0 120.81 0 119.82 0 116.84 0 116.84 0 114.86 0.01 114.86 2.02 114.88 2.02 118.83 2.02 118.83 2.02 119.82 2.02 124.77 2.01 124.77 0 120.81 0"/><polygon class="cls-16" points="17.22 28.21 10.44 9.57 3.65 28.21 0 28.21 8.6 4.57 12.27 4.57 20.88 28.21 17.22 28.21"/><rect class="cls-16" x="41.52" y="9.74" width="3.37" height="18.26"/><rect class="cls-16" x="41.52" y="4.36" width="3.37" height="3.37"/><path class="cls-16" d="M75.84,39.16h-4.3V52.52H68.79V39.16H64.46V36.57H75.84Z"/><path class="cls-16" d="M117.53,44.55a8.39,8.39,0,1,1,8.39,8.25A8.16,8.16,0,0,1,117.53,44.55Zm14,0a5.56,5.56,0,1,0-5.57,5.59A5.47,5.47,0,0,0,131.49,44.55Z"/><path class="cls-16" d="M179.52,45.8H178v6.72h-2.75v-16H178v6.64h1.53l5-6.64H188l-6.08,7.86,6.24,8.09h-3.44Z"/><path class="cls-16" d="M242,49.93v2.59h-9.11v-16h9v2.59h-6.25v4.05h5.48V45.8h-5.48v4.13Z"/><path class="cls-16" d="M300,36.57v16h-2.8l-8-11.28V52.52h-2.75v-16h2.79l8,11.28V36.57Z"/><rect class="cls-17" x="41.91" y="36.57" width="2.59" height="2.59"/><rect class="cls-17" x="18.29" y="36.57" width="2.59" height="2.59"/><rect class="cls-17" y="36.57" width="2.59" height="2.59"/></svg>